<?xml version="1.0" standalone="no"?>
<!DOCTYPE svg PUBLIC "-//W3C//DTD SVG 20010904//EN"
 "http://www.w3.org/TR/2001/REC-SVG-20010904/DTD/svg10.dtd">
<svg version="1.0" xmlns="http://www.w3.org/2000/svg"
 width="800.000000pt" height="600.000000pt" viewBox="0 0 800.000000 600.000000"
 preserveAspectRatio="xMidYMid meet">

<g transform="translate(0.000000,600.000000) scale(0.100000,-0.100000)"
fill="#fff" stroke="none">
<path d="M2595 3921 c-55 -5 -124 -12 -152 -16 l-53 -7 0 -688 0 -688 68 -9
c37 -4 162 -8 277 -7 174 1 227 4 309 22 179 38 297 118 354 240 24 50 27 69
27 157 0 84 -4 108 -23 146 -38 77 -87 125 -168 166 l-76 37 39 19 c116 59
183 160 183 277 0 87 -22 149 -75 208 -90 100 -213 140 -454 146 -86 3 -201 1
-256 -3z m376 -249 c54 -24 74 -46 88 -97 21 -77 -22 -158 -101 -190 -27 -11
-81 -20 -145 -23 l-103 -5 0 166 0 166 33 4 c66 10 184 -1 228 -21z m-17 -556
c125 -38 179 -148 127 -262 -36 -80 -118 -114 -273 -114 l-98 0 0 202 0 201
98 -6 c54 -4 120 -13 146 -21z"/>
<path d="M3512 3173 c4 -359 5 -381 26 -436 12 -32 35 -77 52 -100 120 -163
397 -171 550 -15 l48 49 7 -58 c9 -80 10 -83 45 -83 l30 0 0 256 0 257 123
126 c67 69 128 130 135 134 8 6 12 43 12 127 l0 120 -195 0 -195 0 0 -334 c0
-330 0 -333 -23 -367 -52 -77 -152 -103 -224 -59 -70 42 -83 122 -83 503 l0
257 -156 0 -155 0 3 -377z"/>
<path d="M4627 3543 c-4 -3 -7 -56 -7 -117 l0 -111 134 -135 134 -135 7 -321
7 -320 -25 -29 -25 -29 -171 -4 -171 -4 0 -29 0 -29 74 0 74 0 22 -97 c12 -54
24 -101 26 -105 8 -13 128 23 196 59 162 85 271 240 401 568 60 152 297 819
297 835 0 7 -59 10 -167 8 l-167 -3 -79 -320 c-42 -176 -80 -331 -84 -345 -5
-21 -9 -15 -25 40 -11 36 -42 142 -69 235 -28 94 -66 221 -85 283 l-35 112
-128 0 c-70 0 -131 -3 -134 -7z"/>
<path d="M4550 3210 c-25 -25 -26 -52 -2 -73 24 -22 55 -21 75 1 23 26 21 58
-5 76 -30 21 -44 20 -68 -4z"/>
</g>
</svg>
