<?xml version="1.0" standalone="no"?>
<!DOCTYPE svg PUBLIC "-//W3C//DTD SVG 20010904//EN"
 "http://www.w3.org/TR/2001/REC-SVG-20010904/DTD/svg10.dtd">
<svg version="1.0" xmlns="http://www.w3.org/2000/svg"
 width="512.000000pt" height="512.000000pt" viewBox="0 0 512.000000 512.000000"
 preserveAspectRatio="xMidYMid meet">

<g transform="translate(0.000000,512.000000) scale(0.100000,-0.100000)"
fill="#fff" stroke="none">
<path d="M0 2560 l0 -2560 2560 0 2560 0 0 2560 0 2560 -2560 0 -2560 0 0
-2560z m1593 785 c90 -19 155 -56 222 -126 61 -64 99 -137 115 -219 13 -69 13
-811 0 -881 -34 -182 -189 -324 -381 -349 -40 -5 -174 -10 -296 -10 l-223 0 0
800 0 800 248 0 c176 0 266 -4 315 -15z m1307 -130 l0 -145 -255 0 -255 0 0
-180 0 -180 155 0 155 0 0 -145 0 -145 -155 0 -155 0 2 -182 3 -183 253 -3
252 -2 0 -145 0 -145 -295 0 c-328 0 -379 6 -431 52 -73 64 -69 23 -72 726 -2
438 1 645 8 673 14 52 73 116 125 134 31 11 109 14 353 15 l312 0 0 -145z
m489 123 c4 -13 68 -256 142 -540 74 -285 136 -512 138 -505 3 7 66 248 141
537 l137 525 156 3 c118 2 157 -1 157 -10 0 -9 -346 -1324 -366 -1390 -14 -46
-89 -140 -131 -165 -53 -30 -131 -35 -179 -10 -43 22 -100 88 -129 150 -18 38
-312 1120 -380 1400 l-7 27 156 0 c153 0 157 0 165 -22z"/>
<path d="M1320 2560 l0 -512 103 4 c89 3 108 7 148 30 78 46 79 49 79 484 0
424 0 424 -73 472 -36 24 -51 27 -149 31 l-108 3 0 -512z"/>
</g>
</svg>
