<svg width="240" height="56" viewBox="0 0 240 56" fill="none" xmlns="http://www.w3.org/2000/svg">
<path d="M126.042 13.9325C121.295 14.0929 116.578 14.8177 111.974 16.0944V54.7559H119.713V21.8143C121.734 21.4365 123.779 21.2317 125.829 21.2018C133.577 21.2018 135.405 24.1383 135.405 30.2096V54.7198H143.144V28.7774C143.111 19.4182 138.963 13.9325 126.042 13.9325ZM32.0885 47.4866C29.9599 47.9718 27.7938 48.2312 25.62 48.2613C14.9621 48.2613 8.16561 41.4604 8.16561 27.6154C8.16561 14.9414 14.4292 7.74413 25.9725 7.74413C30.1334 7.72448 34.2688 8.45791 38.2127 9.91501C38.9657 7.38319 39.4392 4.76115 39.6229 2.10524C35.208 0.590274 30.5962 -0.115764 25.9725 0.0154327C9.50195 0.0154327 0 10.0681 0 27.9396C0 44.3248 8.65751 55.999 25.0543 55.999C30.1435 56.0362 35.1974 55.069 39.9754 53.1435V25.6066H32.0885V47.4866ZM166.296 13.9325C153.999 13.9325 149.129 23.0574 149.129 34.5784C149.129 47.8019 155.392 55.6837 168.338 55.6837C172.259 55.7926 176.153 54.9467 179.742 53.2065C180.234 50.6573 180.652 47.7208 180.939 45.4778C177.046 47.4108 172.823 48.4118 168.551 48.4144C161.656 48.4144 157.991 45.0905 157.008 38.2085H181.709C181.995 36.0337 182.137 33.8392 182.136 31.6419C182.103 21.8954 177.315 13.9325 166.264 13.9325H166.296ZM156.868 31.1014C157.499 24.5257 160.385 21.0487 165.886 21.0487C171.232 21.0487 174.331 24.7599 174.331 31.1014H156.868ZM207.747 22.5169C208.106 20.1103 208.342 17.6833 208.453 15.2476H196.171V0.627957C193.55 0.62177 190.942 1.04065 188.432 1.87104V42.4602C188.432 51.8914 193.22 55.6837 200.73 55.6837C202.967 55.7347 205.194 55.3158 207.288 54.4496C207.706 52.2067 207.985 49.5764 208.198 47.2434C206.26 48.0225 204.212 48.416 202.148 48.4054C198.418 48.4054 196.163 46.4777 196.163 41.4514V22.535L207.747 22.5169ZM105.636 22.5169C105.991 20.1097 106.227 17.683 106.341 15.2476H94.0685V0.627957C91.447 0.621111 88.8391 1.04 86.3292 1.87104V42.4602C86.3292 51.8914 91.117 55.6837 98.6268 55.6837C100.865 55.7358 103.091 55.3169 105.185 54.4496C105.601 52.066 105.908 49.6608 106.104 47.2434C104.165 48.0215 102.117 48.415 100.053 48.4054C96.323 48.4054 94.0685 46.4777 94.0685 41.4514V22.535L105.636 22.5169ZM64.1853 13.9325C51.8877 13.9325 47.0096 23.0574 47.0096 34.5784C47.0096 47.8019 53.2732 55.6837 66.2267 55.6837C70.1452 55.7928 74.037 54.9468 77.6225 53.2065C78.1144 50.6573 78.5407 47.7208 78.8194 45.4778C74.9264 47.4108 70.7037 48.4118 66.4316 48.4144C59.5368 48.4144 55.8803 45.0905 54.8965 38.2085H79.5983C79.881 36.0335 80.0208 33.8389 80.0164 31.6419C79.9836 21.8954 75.2121 13.9325 64.1525 13.9325H64.1853ZM54.7161 31.1014C55.3474 24.5257 58.2332 21.0487 63.7344 21.0487C69.0879 21.0487 72.1787 24.7599 72.1787 31.1014H54.7161ZM236.065 22.5169H240V18.1391H236.048L236.065 22.5169ZM236.065 13.8334H240V9.49164H236.048L236.065 13.8334ZM228.161 5.14988H232.113V0.808111H228.161V5.14988ZM220.266 22.5169H224.21V18.1391H220.266V22.5169ZM228.161 13.8334H232.113V9.49164H228.161V13.8334ZM236.065 0.808111V5.14988H240V0.808111H236.065ZM220.266 13.8334H224.21V9.49164H220.266V13.8334ZM220.266 5.14988H224.21V0.808111H220.266V5.14988ZM228.161 22.5169H232.113V18.1391H228.161V22.5169Z" fill="black"/>
</svg>
