<svg width="143" height="38" viewBox="0 0 143 38" fill="none" xmlns="http://www.w3.org/2000/svg">
<path fill-rule="evenodd" clip-rule="evenodd" d="M72.7764 24.1778C69.3869 24.1778 67.0103 21.487 67.0103 18.1335C67.0103 14.7796 69.3869 12.0893 72.7764 12.0893C76.1656 12.0893 78.5422 14.7796 78.5422 18.1335C78.5422 21.487 76.1656 24.1778 72.7764 24.1778ZM72.7764 8.57948C67.3609 8.57948 63.3092 12.6744 63.3092 18.1335C63.3092 23.5932 67.3609 27.6878 72.7764 27.6878C78.1913 27.6878 82.2433 23.5932 82.2433 18.1335C82.2433 12.6744 78.1913 8.57948 72.7764 8.57948ZM55.7118 21.5653C54.4653 23.2422 52.5563 24.1778 50.6863 24.1778C47.1411 24.1778 44.6086 21.4092 44.6086 18.1335C44.6086 14.9357 46.9462 12.0893 50.4918 12.0893C52.7122 12.0893 54.582 13.2202 55.7118 14.7018V21.5653ZM55.8288 10.6459C54.1537 9.20334 52.1667 8.57948 50.102 8.57948C48.3876 8.57948 46.8685 9.00823 45.6217 9.74916C42.8555 11.3874 40.9075 14.4679 40.9075 18.1335C40.9075 21.7989 42.8165 24.8412 45.5827 26.4784C46.8295 27.2196 48.5436 27.6878 50.1797 27.6878C52.3616 27.6878 54.2317 26.9857 55.7118 25.6987V26.713C55.7118 29.0134 55.3612 30.4177 54.699 31.4313C53.8031 32.7963 52.2447 33.5372 50.2577 33.5372C47.2578 33.5372 45.5437 32.0161 44.2192 30.2616L41.492 32.7963C42.6605 34.6289 45.6607 37.0465 50.4136 37.0465C54.0367 37.0465 56.8417 35.3698 58.3221 32.5229C59.0623 31.0803 59.4129 29.2472 59.4129 26.5179V8.96946H55.8288V10.6459ZM33.3104 21.5653C32.0638 23.2422 30.1545 24.1778 28.285 24.1778C24.7394 24.1778 22.2071 21.4092 22.2071 18.1335C22.2071 14.9357 24.5444 12.0893 28.0901 12.0893C30.3107 12.0893 32.1805 13.2202 33.3104 14.7018V21.5653ZM33.4273 10.6459C31.7519 9.20334 29.7654 8.57948 27.7002 8.57948C25.9861 8.57948 24.4667 9.00823 23.2202 9.74916C20.454 11.3874 18.506 14.4679 18.506 18.1335C18.506 21.7989 20.415 24.8412 23.1812 26.4784C24.4277 27.2196 26.1418 27.6878 27.7782 27.6878C29.9599 27.6878 31.9466 26.9469 33.4273 25.6211V27.2979H37.0114V8.96946H33.4273V10.6459ZM13.7135 10.2952C13.0123 11.0362 11.9997 11.5042 10.1297 11.5042H3.89602V3.70465H10.1297C11.9997 3.70465 13.0123 4.17267 13.7135 4.91385C14.3763 5.61576 14.8044 6.5518 14.8044 7.60466C14.8044 8.65728 14.3763 9.59332 13.7135 10.2952ZM16.0122 1.79404C14.6877 0.663133 12.9733 0 10.3243 0H0V27.2979H3.89602V15.2091H10.3243C12.9733 15.2091 14.6877 14.5457 16.0122 13.415C17.6483 12.011 18.7002 9.94427 18.7002 7.60466C18.7002 5.2648 17.6483 3.1981 16.0122 1.79404Z" fill="white"/>
<path fill-rule="evenodd" clip-rule="evenodd" d="M142.999 12.2967V8.97867H137.138V3.90399H133.426V20.6901C133.426 22.6812 133.817 24.3597 134.91 25.5702C136.083 26.8975 137.802 27.7171 140.108 27.7171C141.163 27.7171 142.296 27.5608 142.999 27.3267L142.257 23.9696C141.71 24.1258 140.772 24.2035 140.225 24.2035C139.248 24.2035 138.193 23.8521 137.685 23.2279C137.216 22.6812 137.138 21.8616 137.138 20.8852V12.2967H142.999ZM130.026 8.97867H125.65L121.312 14.9123L116.974 8.97867H112.598L118.889 17.6841L111.934 27.3267H116.349L121.312 20.4557L126.275 27.3267H130.69L123.735 17.6841L130.026 8.97867ZM105.095 29.0443L88.6826 8.97867H85.9476V27.3267H89.8554V16.2397L106.267 36.3056H109.003V0H105.095V29.0443Z" fill="white"/>
</svg>
