<svg width="92" height="92" viewBox="0 0 92 92" fill="none" xmlns="http://www.w3.org/2000/svg">
<g clip-path="url(#clip0_4962_4309)">
<path d="M19.2426 21.55L17.5289 20.2615L14.8026 23.8836L8.51584 19.1548L7.15918 20.9626L15.1596 26.9799L19.2426 21.55Z" fill="black"/>
<path d="M23.4488 18.1003C25.6201 16.3704 26.0031 13.6635 23.9616 11.1027C21.9169 8.54195 19.1938 8.318 17.0257 10.0479C14.8577 11.7778 14.4714 14.4847 16.5129 17.0454C18.5577 19.6062 21.2807 19.8302 23.4488 18.1003ZM18.3629 11.7259C19.5151 10.8074 20.8913 11.0638 22.1051 12.586C23.3287 14.1179 23.2638 15.5038 22.1116 16.4255C20.9594 17.344 19.593 17.1006 18.3694 15.5654C17.1556 14.0433 17.214 12.6444 18.3629 11.7259Z" fill="black"/>
<path d="M31.7159 13.1573C33.978 12.1901 35.0166 10.3596 33.845 7.62351L31.5211 2.1936L29.4439 3.0829L31.6152 8.15903C32.352 9.88245 31.9495 10.7231 30.872 11.1839C29.7263 11.674 28.9084 11.356 28.1749 9.64552L25.9971 4.55641L23.9199 5.4457L26.2438 10.8788C27.4122 13.6117 29.4537 14.1245 31.7159 13.1573Z" fill="black"/>
<path d="M37.4869 0.868259L35.2754 1.32886L37.317 11.1313L39.5285 10.6707L37.4869 0.868259Z" fill="black"/>
<path d="M45.0037 8.14919C44.189 8.17191 43.4912 7.77594 42.8259 7.01972L41.0635 8.43805C42.2773 9.92129 43.6048 10.3302 44.9323 10.2945C47.1198 10.2361 48.5154 8.91191 48.4668 7.03919C48.4246 5.49428 47.4314 4.66341 45.5295 4.17007L44.4487 3.89744C43.7703 3.72867 43.5204 3.42034 43.5074 2.97894C43.4945 2.49209 43.9294 2.13832 44.6856 2.11885C45.3867 2.09938 46.0715 2.55376 46.3928 3.40411L48.0026 2.1156C47.334 0.687537 46.1721 -0.0394791 44.6272 0.00271375C42.6246 0.0546435 41.1965 1.23929 41.2452 3.06981C41.2874 4.65691 42.1573 5.63709 43.9716 6.08823L44.9517 6.33489C45.7859 6.54261 46.1364 6.78928 46.1494 7.27612C46.1689 7.75972 45.7339 8.12971 45.0037 8.14919Z" fill="black"/>
<path d="M51.8591 0.509295L50.3066 10.4041L52.5415 10.7547L54.0939 0.859934L51.8591 0.509295Z" fill="black"/>
<path d="M56.2464 11.6028L57.6453 9.77231L60.6735 10.9018L60.5339 13.1997L62.7312 14.0208L63.0948 3.46934L60.6832 2.57031L54.0459 10.7817L56.2464 11.6028ZM61.0143 5.36802L60.8098 8.74345L58.9598 8.05214L61.0143 5.36802Z" fill="black"/>
<path d="M69.3671 10.8921L68.4649 18.1201L70.4577 19.5871L76.4004 11.525L74.651 10.2365L70.6167 15.7053L71.7819 8.12358L69.7891 6.65332L63.8496 14.7154L65.599 16.0039L69.3671 10.8921Z" fill="black"/>
<path d="M72.886 22.3139L75.0411 21.496L77.021 24.0535L75.6903 25.9328L77.1281 27.7892L82.9961 19.0099L81.4188 16.9749L71.4482 20.4606L72.886 22.3139ZM80.2276 19.5259L78.277 22.2847L77.0664 20.7235L80.2276 19.5259Z" fill="black"/>
<path d="M22.9773 73.7978L18.2322 74.528L20.7443 71.766L19.0696 70.2471L12.335 77.6536L14.0064 79.1757L16.1064 76.8681L17.5442 76.6669L16.3465 81.3016L18.3036 83.0802L19.9362 76.3293L24.9863 75.625L22.9773 73.7978Z" fill="black"/>
<path d="M26.7107 76.4763L21.6377 85.1121L23.5853 86.2562L28.6584 77.6205L26.7107 76.4763Z" fill="black"/>
<path d="M29.7406 80.7626L32.3111 81.6519L29.7373 89.0876L31.8729 89.8276L34.4467 82.3919L37.0139 83.278L37.7182 81.2527L30.4416 78.7341L29.7406 80.7626Z" fill="black"/>
<path d="M42.5371 89.8445C41.2096 89.7374 40.3852 88.6209 40.541 86.6833C40.7 84.7295 41.6997 83.7493 43.0239 83.8564C44.0203 83.9376 44.5266 84.6256 44.5364 85.8881L46.7142 85.5928C46.6752 83.2787 45.6366 81.9156 43.1992 81.7176C40.6189 81.5066 38.4411 83.1943 38.175 86.4756C37.9056 89.7536 39.6387 91.7626 42.3618 91.9833C44.5299 92.1586 46.052 91.0778 46.7596 88.9422L44.6305 88.2964C44.215 89.3349 43.6341 89.9321 42.5371 89.8445Z" fill="black"/>
<path d="M54.4405 80.9483L55.1643 84.6548L51.6817 85.3332L50.958 81.6267L48.7412 82.0583L50.6561 91.886L52.8761 91.4544L52.0907 87.4396L55.5732 86.758L56.3554 90.776L58.5754 90.3411L56.6572 80.5134L54.4405 80.9483Z" fill="black"/>
<path d="M64.2836 85.7287L63.4494 84.0345L66.9677 82.3045L66.02 80.3799L62.5017 82.1098L61.7585 80.5974L65.7116 78.65L64.7639 76.7253L58.7822 79.6691L63.2028 88.653L69.2623 85.6702L68.3146 83.7456L64.2836 85.7287Z" fill="black"/>
<path d="M79.2437 77.716L72.6 70.2251L70.9739 71.6661L75.4821 76.752L68.3093 74.0322L66.4561 75.6745L73.0998 83.1653L74.7259 81.721L70.5131 76.9695L77.3905 79.3582L79.2437 77.716Z" fill="black"/>
<path d="M0.642578 45.9864V47.1029H1.76556V52.2667H3.38187V45.1101H2.34003L0.642578 45.9864Z" fill="black"/>
<path d="M6.94113 45.0061C5.28587 45.0061 4.42578 46.1096 4.42578 47.502C4.42578 49.0144 5.30534 49.8128 6.4413 49.8128C7.06446 49.8128 7.67788 49.5175 8.01542 48.9528C8.01542 50.2607 7.5156 50.8352 6.86972 50.8352C6.4413 50.8352 6.17516 50.6632 6.05183 50.2413L4.62052 50.5366C4.93859 51.8543 5.68508 52.3671 6.86972 52.3671C8.28156 52.3671 9.65121 51.374 9.65121 48.5633C9.65121 46.0382 8.58665 45.0061 6.94113 45.0061ZM6.94113 48.3815C6.37964 48.3815 6.02262 48.0245 6.02262 47.45C6.02262 46.8788 6.37964 46.5186 6.94113 46.5186C7.50262 46.5186 7.86288 46.8756 7.86288 47.45C7.86288 48.0245 7.50262 48.3815 6.94113 48.3815Z" fill="black"/>
<path d="M81.6729 46.6031H84.4251L82.1759 52.2667H83.8734L86.1226 46.5187V45.1101H81.6729V46.6031Z" fill="black"/>
<path d="M88.8029 50.7318L90.205 49.2713C90.8704 48.5864 91.328 47.9113 91.328 47.0026C91.328 45.9705 90.6432 45.0098 89.0983 45.0098C87.9331 45.0098 86.94 45.7043 86.5635 46.7494L87.7708 47.6582C87.9753 46.9441 88.4751 46.5449 89.0269 46.5449C89.478 46.5449 89.7312 46.7494 89.7312 47.1778C89.7312 47.8627 88.6991 48.7 88.1051 49.3556L86.7452 50.8389V52.2702H91.3572V50.735H88.8029V50.7318Z" fill="black"/>
<path d="M16.4561 37.5642L21.6847 43.8737C21.6847 43.8737 24.4792 39.768 27.926 42.5235C31.3729 45.2791 28.9614 50.9361 28.6433 54.1947C28.2409 58.3426 29.2632 61.6953 30.9315 64.36C33.0541 67.7484 37.9842 70.5688 43.2778 71.5685C43.6835 71.6431 44.0729 71.7015 44.4559 71.7502L45.0077 77.5826H48.9965L49.532 71.8801C58.6814 71.1465 71.6281 62.1919 65.8672 47.1161C63.2155 40.1802 57.6006 29.8267 57.6006 29.8267L57.6655 29.8105C59.8855 29.2457 60.3172 26.3604 57.7207 24.8122L59.5772 23.0953L56.8606 21.9821L57.8732 18.2723L52.0441 20.5832C52.0506 20.58 52.0604 20.5702 52.0604 20.5702C52.0604 20.5702 50.5836 17.4902 48.3377 17.4642C46.4422 17.4447 45.5529 18.8111 45.5529 18.8111C45.5529 18.8111 45.0499 17.4025 43.7549 17.0195C42.4599 16.6366 40.347 17.3895 40.0808 19.7394C39.779 22.3748 41.9081 23.7315 42.6092 23.9554C43.44 24.2215 44.589 24.7571 46.9972 23.7412C46.994 26.1592 46.9842 31.7643 46.9777 34.5815C46.9713 38.2328 47.2991 44.1561 45.7347 47.366C44.167 50.5759 42.3787 51.9131 40.0159 51.6372C37.374 51.3289 36.4685 48.8525 37.387 44.2599C38.3055 39.6674 39.0812 35.0976 35.2286 31.6929C31.3794 28.285 24.45 27.9118 16.4561 37.5642ZM52.5537 22.8162C53.1476 22.5111 53.9071 22.8065 54.2512 23.4751C54.5919 24.1437 54.3875 24.9323 53.7935 25.2374C53.1996 25.5425 52.4401 25.2472 52.0961 24.5786C51.752 23.91 51.9565 23.1213 52.5537 22.8162Z" fill="black"/>
<path d="M79.7329 74.7814L80.0769 74.3497L81.3654 75.3689L81.5212 75.1709L80.2327 74.1518L80.5767 73.7169L80.3917 73.5708L79.5479 74.6321L79.7329 74.7814Z" fill="black"/>
<path d="M82.1785 73.4835L80.7569 73.1102L80.5557 73.3634L82.0324 74.5285L82.1817 74.3403L80.9971 73.4023L82.3213 73.7496L82.4706 73.5646L81.8279 72.354L83.0126 73.2887L83.1619 73.1005L81.6851 71.9353L81.4839 72.1885L82.1785 73.4835Z" fill="black"/>
</g>
<defs>
<clipPath id="clip0_4962_4309">
<rect width="90.7147" height="92" fill="black" transform="translate(0.642578)"/>
</clipPath>
</defs>
</svg>
